# xmcd
#
# Track frame offsets: 
#        150
#        28474
#        44001
#        57875
#        74471
#        87439
#        104207
#        125635
#        140706
#        155453
#
# Disc length: 2301 seconds
#
# Revision: 1
# Processed by: cddbd v1.5.2PL0 Copyright (c) Steve Scherf et al.
# Submitted via: ExactAudioCopyFreeDBPlugin 1.0
#
DISCID=a108fb0a
DTITLE=Sam Dees - The Show Must Go On
DYEAR=1975
DGENRE=Soul
TTITLE0=Child of the Streets
TTITLE1=The Show Must Go On
TTITLE2=Come Back Strong
TTITLE3=Just Out of Reach
TTITLE4=Claim Jumpin'
TTITLE5=Troubled Child
TTITLE6=What's it Gonna Be?
TTITLE7=Worn-out Broken Heart
TTITLE8=Good Guys
TTITLE9=So Tied Up
EXTD=
EXTT0=
EXTT1=
EXTT2=
EXTT3=
EXTT4=
EXTT5=
EXTT6=
EXTT7=
EXTT8=
EXTT9=
PLAYORDER=
